<?xml version="1.0" encoding="utf-8"?>
<!-- Generator: Adobe Illustrator 19.1.0, SVG Export Plug-In . SVG Version: 6.00 Build 0)  -->
<svg version="1.1" id="Layer_1" xmlns="http://www.w3.org/2000/svg" xmlns:xlink="http://www.w3.org/1999/xlink" x="0px" y="0px"
	 viewBox="-1600 2534 99 34" style="enable-background:new -1600 2534 99 34;" xml:space="preserve">
<style type="text/css">
	.st0{fill:#FFFFFF;}
</style>
<g>
	<path class="st0" d="M-1596.4,2543.8c-0.8,0-1.6-0.2-2-0.7c-0.4-0.5-0.7-1-0.7-1.8c0-0.2,0-0.4,0.1-0.6c0.1-0.2,0.1-0.4,0.2-0.6
		c0.3,0.1,0.7,0.1,1.3,0.2c0.5,0.1,1.2,0,1.9,0c1.2,0,2.4,0,3.8,0s2.7-0.1,4-0.2c1.3-0.1,2.4-0.2,3.4-0.4c0.9-0.1,1.6-0.2,1.9-0.2
		c0.8,0,1.4,0.3,1.8,0.9c0.3,0.6,0.6,1.4,0.8,2.4c-0.5-0.1-1.2-0.1-1.7-0.1c-0.5,0-1,0-1.5,0c-0.7,0-1.4,0-2.1,0s-1.5,0-2.1,0.1
		c-0.3,0.6-0.6,1.4-1,2.2c-0.4,0.8-0.7,1.8-1,2.7c-0.3,0.9-0.7,1.9-1,2.8c-0.3,0.9-0.6,1.8-0.8,2.5c-0.5,1.5-0.9,2.7-1.3,4
		s-0.6,2.3-0.9,3.5c-0.3,1-0.5,2.1-0.7,3c-0.2,0.9-0.4,1.9-0.5,2.8c-1.5-0.2-2.6-1.2-3.7-2.7c0.2-0.6,0.4-1.4,0.6-2.2
		c0.2-0.8,0.5-1.7,0.8-2.7c0.3-1,0.7-2.2,1.2-3.5s0.9-2.7,1.6-4.4c0.2-0.6,0.4-1.3,0.7-1.9c0.2-0.6,0.5-1.4,0.7-2
		c0.2-0.6,0.4-1.3,0.6-1.9c0.2-0.6,0.3-1.2,0.5-1.7c-0.9,0.1-1.8,0.2-2.6,0.3C-1595,2543.7-1595.7,2543.8-1596.4,2543.8z"/>
	<path class="st0" d="M-1587.8,2562.8c0.1-0.6,0.3-1.5,0.5-2.5c0.3-1,0.6-2.1,0.9-3.2c0.4-1.2,0.7-2.3,1.2-3.5s0.8-2.2,1.2-3.1
		c0.3-0.6,0.5-1.2,0.7-1.6s0.4-0.7,0.7-0.9c0.3,0,0.6,0.1,0.9,0.2c0.3,0.1,0.6,0.2,0.9,0.4c0.3,0.1,0.5,0.3,0.8,0.5
		c0.2,0.2,0.4,0.3,0.5,0.5c-0.6,0.7-1.2,1.5-1.6,2.4c-0.4,0.8-0.9,2-1.4,3.5c1.2-1,2.2-2,3.1-3c0.9-0.9,1.8-2,2.5-3.1
		c0.1-0.1,0.3-0.2,0.7-0.2c0.3,0,0.6,0,0.8,0.1c0.3,0.1,0.5,0.2,0.6,0.4c-0.4,1-0.6,2.1-0.6,3.1c0,0.9,0.1,1.7,0.4,2.2
		c0,0.1-0.2,0.4-0.4,0.7c-0.3,0.4-0.5,0.7-0.9,1c-0.6-0.3-1.2-0.7-1.6-1.3c-0.4-0.5-0.8-1.2-1-1.8c-1,0.7-1.9,1.5-2.6,2.1
		c-0.7,0.7-1.4,1.5-1.9,2.3c-0.5,0.8-0.9,1.8-1.3,2.8c-0.3,1-0.7,2.4-1,3.9c-0.2,0-0.4-0.1-0.7-0.2s-0.5-0.3-0.8-0.4
		c-0.3-0.2-0.5-0.3-0.7-0.5C-1587.6,2563.2-1587.8,2562.9-1587.8,2562.8z"/>
	<path class="st0" d="M-1562.7,2550.3c0.2,0,0.5,0,0.7,0.1c0.3,0.1,0.5,0.2,0.8,0.3c0.2,0.1,0.4,0.2,0.6,0.4
		c0.2,0.1,0.2,0.2,0.2,0.3c-0.4,0.9-0.8,1.8-1.2,2.7c-0.4,0.9-0.7,1.8-0.9,2.6c-0.2,0.8-0.4,1.7-0.6,2.4c-0.1,0.7-0.2,1.4-0.2,1.9
		c0,0.6,0.1,1.2,0.2,1.5c0.1,0.4,0.3,0.7,0.6,0.8c-0.2,0.2-0.6,0.3-1,0.4c-0.4,0.1-0.7,0.2-1.2,0.2c-1.2,0-1.8-0.8-1.8-2.4
		c0-1.3,0.4-2.9,1.3-5c-0.4,0.9-0.9,1.9-1.5,2.8c-0.5,0.8-1.2,1.7-1.7,2.3c-0.6,0.6-1.2,1.3-1.8,1.7c-0.6,0.4-1.2,0.6-1.7,0.7
		c-0.8,0-1.5-0.3-2-1c-0.5-0.7-0.7-1.7-0.7-2.8c0-1.3,0.2-2.5,0.7-3.9c0.5-1.4,1.2-2.6,2-3.8c0.8-1.2,1.7-2.1,2.6-2.9
		c0.9-0.7,1.9-1.2,2.7-1.2c0.2,0.1,0.4,0.2,0.7,0.4c0.3,0.2,0.5,0.4,0.7,0.7c0.2,0.2,0.4,0.5,0.6,0.8c0.2,0.3,0.3,0.5,0.3,0.7
		c-0.8,0.1-1.8,0.5-2.7,1.3c-0.9,0.7-1.8,1.6-2.5,2.6c-0.7,1-1.4,2.1-1.9,3.2c-0.5,1.2-0.7,2.2-0.7,3.2c0,0.4,0.1,0.6,0.4,0.7
		c0.6-0.1,1.4-0.6,2.2-1.6c0.8-0.9,1.8-2.4,3-4.4c0.2-0.4,0.4-0.8,0.7-1.3c0.3-0.5,0.5-0.9,0.8-1.5c0.3-0.5,0.5-1,0.8-1.6
		C-1563.2,2551.3-1563,2550.8-1562.7,2550.3z"/>
	<path class="st0" d="M-1557.2,2552c0-0.4,0-0.7,0.1-1.2c0.1-0.3,0.2-0.6,0.3-0.9c0.2-0.2,0.4-0.4,0.7-0.6c0.3-0.1,0.7-0.2,1.2-0.2
		c0.3,0,0.6,0,1,0.1c0.4,0.1,0.6,0.2,0.8,0.3c-0.1,0.4-0.2,0.7-0.2,0.9c-0.1,0.3-0.1,0.6-0.1,0.9c0,0.3-0.1,0.7-0.1,1.2s0,1-0.1,1.8
		c0,1.5-0.1,2.8-0.2,4c-0.1,1.2-0.3,2.3-0.6,3.5c0,0.1,0,0.1,0.1,0.1c0.3-0.2,0.7-0.6,1.2-1c0.4-0.4,0.8-0.9,1.3-1.6
		c0.4-0.5,0.9-1.2,1.4-1.9c0.4-0.6,0.8-1.3,1.3-1.9c0.5-0.9,1-2.1,1.7-3.5c0.6-1.4,1.2-2.8,1.6-4.4c0.1,0,0.3,0,0.5,0.1
		c0.2,0.1,0.4,0.1,0.6,0.2c0.2,0.1,0.4,0.2,0.5,0.2c0.2,0.1,0.3,0.2,0.3,0.2c0,0.9-0.3,1.9-0.6,2.8c-0.4,0.9-0.8,1.9-1.5,2.8
		c-0.6,0.9-1.2,1.8-1.8,2.6c-0.6,0.8-1.2,1.5-1.7,2.1c-1,1.3-2.1,2.3-3.1,3.2c-1,0.9-2.3,1.9-3.8,2.7c-0.5-0.2-1-0.5-1.4-0.8
		c-0.3-0.3-0.5-0.7-0.5-1.2c0-0.2,0.1-0.5,0.2-0.9c0.1-0.3,0.2-0.7,0.4-1.3c0.1-0.5,0.3-1.2,0.4-2s0.2-1.8,0.2-3c0-0.7,0-1.5,0-2.2
		C-1557.2,2552.9-1557.2,2552.4-1557.2,2552z"/>
	<path class="st0" d="M-1540.7,2564.6c-1.3-0.1-2.2-0.6-2.9-1.7c-0.7-0.9-1.2-2.2-1.2-3.7c0-0.8,0.1-1.8,0.4-2.7
		c0.2-0.9,0.6-1.9,1.2-2.7c0.5-0.8,1-1.7,1.7-2.5c0.6-0.7,1.4-1.5,2.1-2c1.2-0.8,2.3-1.4,3.4-1.4c0.7,0.4,1.4,1.2,2.1,2.3
		c0.1,0,0.2,0,0.3,0c0.1,0,0.2,0,0.3,0c1.2,0,1.7,1,1.7,3c0,1.4-0.2,2.6-0.6,3.9s-1,2.3-1.9,3.4s-1.8,1.9-2.8,2.5
		C-1538.1,2563.8-1539.3,2564.3-1540.7,2564.6z M-1539,2554.4c-0.4,0.5-0.7,1-1,1.7c-0.3,0.6-0.6,1.2-0.8,1.8
		c-0.2,0.6-0.4,1.2-0.5,1.7s-0.2,1-0.2,1.5c0,0.5,0.1,1,0.2,1.5c0.2,0.5,0.4,0.7,0.6,0.8c0.9-0.2,1.9-0.6,2.7-1.3
		c0.8-0.6,1.5-1.4,2.1-2.2c0.6-0.8,1-1.9,1.4-3c0.3-1.2,0.5-2.3,0.5-3.6c0-0.5,0-1-0.1-1.4s-0.2-0.6-0.3-0.8
		c-0.9,0.3-1.8,0.7-2.5,1.4C-1537.7,2553-1538.5,2553.6-1539,2554.4z"/>
	<path class="st0" d="M-1530.2,2561.4c0-0.9,0.2-2.3,0.7-4c0.4-1.7,1-3.8,1.9-6.1c1.4-3.7,2.6-6.7,3.8-9.1c1.2-2.4,2.3-4.3,3.5-5.8
		c0.2,0,0.6,0.1,0.9,0.3c0.4,0.2,0.7,0.3,1.2,0.5c0.4,0.2,0.7,0.4,0.9,0.6c0.3,0.2,0.5,0.4,0.5,0.5c-1.7,2-3.1,4.2-4.5,6.4
		c-1.3,2.3-2.4,4.9-3.6,7.9c-0.9,2.5-1.6,4.8-2.1,6.9c-0.5,2.1-0.7,3.8-0.7,5.1c0,0.4,0,0.6,0,0.7s0,0.2,0,0.2
		c-0.3,0-0.5-0.1-0.7-0.2c-0.2-0.1-0.3-0.2-0.4-0.4c0-0.1-0.2-0.3-0.3-0.5c-0.2-0.2-0.4-0.3-0.5-0.5c-0.2-0.1-0.3-0.5-0.5-1
		C-1530.1,2562.7-1530.2,2562.1-1530.2,2561.4z"/>
	<path class="st0" d="M-1522.4,2561.3c0-0.2,0-0.4,0-0.7s0.1-0.7,0.2-1.2c0.1-0.5,0.2-1,0.3-1.8c0.1-0.7,0.3-1.6,0.5-2.5
		c0-0.2,0.1-0.5,0.3-1c0.1-0.5,0.3-0.9,0.6-1.5c0.2-0.5,0.5-1,0.9-1.6c0.3-0.5,0.7-0.8,1.3-1.2c0.4,0.1,0.8,0.3,1.5,0.6
		c0.6,0.3,1.2,0.8,1.6,1.5c-0.5,0.5-0.9,1.2-1.3,1.7s-0.6,1.2-0.9,1.8c-0.3,0.6-0.5,1.3-0.7,1.9c-0.2,0.6-0.5,1.4-0.7,2.1
		c-0.2,0.6-0.4,1.3-0.6,1.9c-0.2,0.6-0.3,1.2-0.3,1.7c0,0.4,0,0.6,0,0.8s-0.1,0.2-0.2,0.2c-0.1,0-0.2-0.1-0.5-0.2
		c-0.2-0.1-0.5-0.3-0.8-0.5c-0.3-0.2-0.5-0.5-0.7-0.8C-1522.3,2562.2-1522.4,2561.8-1522.4,2561.3z M-1516.1,2547.1
		c0-0.1,0-0.3,0.1-0.6c-0.1-0.1-0.2-0.3-0.3-0.5c-0.1-0.2-0.1-0.4-0.1-0.6c0-0.2,0-0.4,0.1-0.8c0.1-0.3,0.1-0.7,0.2-1
		c0.1-0.4,0.2-0.8,0.3-1.3c0.1-0.4,0.2-0.8,0.4-1.2c0.2,0,0.6,0.1,0.9,0.2c0.4,0.1,0.7,0.3,1.2,0.5c0.4,0.2,0.7,0.5,1,0.7
		c0.3,0.3,0.5,0.5,0.7,0.7c-0.2,0.2-0.5,0.5-0.9,0.9s-0.7,0.8-1.2,1.4c-0.4,0.4-0.7,0.9-1,1.4c-0.3,0.4-0.5,0.7-0.6,0.8
		c-0.2,0-0.5-0.1-0.7-0.3C-1516,2547.6-1516.1,2547.3-1516.1,2547.1z"/>
	<path class="st0" d="M-1510.9,2564.6c-1.3-0.1-2.2-0.6-2.9-1.7c-0.7-0.9-1.2-2.2-1.2-3.7c0-0.8,0.1-1.8,0.4-2.7
		c0.2-0.9,0.6-1.9,1.2-2.7c0.5-0.8,1-1.7,1.7-2.5c0.6-0.7,1.4-1.5,2.1-2c1.2-0.8,2.3-1.4,3.4-1.4c0.7,0.4,1.4,1.2,2.1,2.3
		c0.1,0,0.2,0,0.3,0c0.1,0,0.2,0,0.3,0c1.2,0,1.7,1,1.7,3c0,1.4-0.2,2.6-0.6,3.9s-1,2.3-1.9,3.4s-1.8,1.9-2.8,2.5
		C-1508.3,2563.7-1509.7,2564.3-1510.9,2564.6z M-1509.2,2554.4c-0.4,0.5-0.7,1-1,1.7c-0.3,0.6-0.6,1.2-0.8,1.8
		c-0.2,0.6-0.4,1.2-0.5,1.7s-0.2,1-0.2,1.5c0,0.5,0.1,1,0.2,1.5c0.2,0.5,0.4,0.7,0.6,0.8c0.9-0.2,1.9-0.6,2.7-1.3
		c0.8-0.6,1.5-1.4,2.1-2.2c0.6-0.8,1-1.9,1.4-3c0.3-1.2,0.5-2.3,0.5-3.6c0-0.5,0-1-0.1-1.4s-0.2-0.6-0.3-0.8
		c-0.9,0.3-1.8,0.7-2.5,1.4C-1508.1,2553-1508.7,2553.6-1509.2,2554.4z"/>
</g>
</svg>
